<?xml version="1.0" standalone="no"?>
<!DOCTYPE svg PUBLIC "-//W3C//DTD SVG 20010904//EN" "http://www.w3.org/TR/2001/REC-SVG-20010904/DTD/svg10.dtd">
<!-- Created using Krita: https://krita.org -->
<svg xmlns="http://www.w3.org/2000/svg" 
    xmlns:xlink="http://www.w3.org/1999/xlink"
    xmlns:krita="http://krita.org/namespaces/svg/krita"
    xmlns:sodipodi="http://sodipodi.sourceforge.net/DTD/sodipodi-0.dtd"
    width="192pt"
    height="192pt"
    viewBox="0 0 192 192">
<defs/>
<path id="shape01" transform="matrix(0.277812117237957 -0.000340595902181261 0.000340595902181261 0.277812117237957 89.6648454305828 269.870105746843)" fill="#000000" fill-rule="evenodd" stroke="#000000" stroke-width="14.4" stroke-linecap="square" stroke-linejoin="bevel" d="M27.0709 0.388805C79.4309 -2.38883 130.009 9.12213 135.466 54.2056C136.478 62.5726 52.9162 63.6895 5.98049 63.3443C4.5606 63.3338 -15.5725 2.65098 27.0709 0.388805Z"/><path id="shape011" transform="matrix(0.277812120624219 -0.000340595906332797 0.000340595906332797 0.277812120624219 78.6851696595291 275.700981036108)" fill="#000000" fill-rule="evenodd" stroke="#000000" stroke-width="14.4" stroke-linecap="square" stroke-linejoin="bevel" d="M27.0709 0.388805C79.4309 -2.38883 130.009 9.12213 135.466 54.2056C136.478 62.5726 52.9162 63.6895 5.98049 63.3443C4.5606 63.3338 -15.5725 2.65098 27.0709 0.388805Z"/><path id="shape013" transform="matrix(0.40072428752981 -0.000491285447136397 0.000491285447136397 0.40072428752981 47.2760857035693 52.3168844114195)" fill="#fedabb" fill-rule="evenodd" stroke="#000000" stroke-width="14.4" stroke-linecap="square" stroke-linejoin="bevel" d="M167.459 342.975C144.55 342.975 101.692 321.835 84.3723 308.32C53.6368 284.336 26.7973 266.107 6.53914 230.655C-1.07001 217.339 0.0591437 194.489 0.0591437 179.895C0.0591437 100.11 43.5902 -9.17984 141.539 0.614979C179.447 4.40575 273.74 15.4883 297.059 48.135C313.615 71.3128 320.083 98.8331 327.299 125.895C350.002 211.036 318.9 261.803 250.619 310.575C226.7 327.66 197.147 342.975 167.459 342.975Z"/><path id="shape021" transform="matrix(0.322878090600516 -0.000395846501066948 0.000395846501066948 0.322878090600516 158.314554809721 111.598811712673)" fill="#ffffff" fill-rule="evenodd" stroke="#000000" stroke-width="14.4" stroke-linecap="square" stroke-linejoin="bevel" d="M21.5382 1.54708C-18.7946 13.6152 3.95333 75.3262 37.1982 63.4671C70.4431 51.608 61.8711 -10.5211 21.5382 1.54708Z"/><path id="shape11" transform="matrix(0.322878090600516 -0.000395846501066948 0.000395846501066948 0.322878090600516 166.819630172015 116.071218848121)" fill="#000000" fill-rule="evenodd" stroke="#000000" stroke-opacity="0" stroke-width="0" stroke-linecap="square" stroke-linejoin="bevel" d="M4.47642 6.99731C18.5822 -10.5039 43.2793 8.3762 33.0407 24.8116C13.539 51.2667 -9.98203 23.4193 4.47642 6.99731Z"/><path id="shape4" transform="matrix(0.36930654716277 -0.000452767495755454 0.000452767495755454 0.36930654716277 115.683713884226 153.257212073024)" fill="none" stroke="#000000" stroke-width="14.4" stroke-linecap="square" stroke-linejoin="bevel" d="M114.042 35.6382C83.0575 35.6382 10.2619 21.3358 0 0"/><path id="shape0211" transform="matrix(0.369306553064158 -0.000452767502990519 0.000452767502990519 0.369306553064158 59.9397157268931 147.924612172918)" fill="none" stroke="#000000" stroke-width="14.4" stroke-linecap="square" stroke-linejoin="bevel" d="M17.5721 0L133.548 13.7004L145.068 98.3344L0 31.3152C0 31.3152 5.85737 20.8768 17.5721 0Z"/><path id="shape01111" transform="matrix(0.36930656285859 -0.00045276751499843 0.00045276751499843 0.36930656285859 52.9023419420355 149.201279646699)" fill="none" stroke="#000000" stroke-opacity="0.4" stroke-width="14.4" stroke-linecap="square" stroke-linejoin="bevel" d="M2.61889 0L118.595 13.7004L130.115 98.3344L22.2878 27.2208C22.2878 27.2208 -9.09584 20.8768 2.61889 0Z"/><path id="shape014" transform="matrix(0.369306549829232 -0.000452767499024519 0.000452767499024519 0.369306549829232 101.0858674516 141.609907546006)" fill="#ffc107" fill-rule="evenodd" stroke="#000000" stroke-width="14.4" stroke-linecap="square" stroke-linejoin="bevel" d="M139.232 0.383005C125.434 2.39921 100.481 31.2258 0 27.3991C1.49206 40.8165 5.4917 90.5203 9.41866 104.53C18.3733 136.478 57.6073 131.432 82.2325 129.337C211.916 118.436 216.218 16.1145 213.065 8.30722C159.257 0.469006 147.329 -0.800152 139.232 0.383005Z"/><path id="shape111" transform="matrix(0.646301357575335 -0.000792361384927631 0.000792361384927631 0.646301357575335 109.27906580591 103.900896262498)" fill="#ffffff" fill-rule="evenodd" stroke="#000000" stroke-width="7.2" stroke-linecap="square" stroke-linejoin="bevel" d="M21.4955 1.54131C-18.7573 13.5645 3.94544 75.0455 37.1245 63.2306C70.3034 51.4157 61.7484 -10.4819 21.4955 1.54131Z"/><path id="shape31" transform="matrix(0.646301357575335 -0.000792361384927631 0.000792361384927631 0.646301357575335 125.703432225349 112.243053927768)" fill="#000000" fill-rule="evenodd" stroke="#000000" stroke-opacity="0" stroke-width="0" stroke-linecap="square" stroke-linejoin="bevel" d="M4.47642 6.99731C18.5822 -10.5039 43.2793 8.3762 33.0407 24.8116C13.539 51.2667 -9.98203 23.4193 4.47642 6.99731Z"/><path id="shape1111" transform="matrix(0.36930654716277 -0.000452767495755454 0.000452767495755454 0.36930654716277 66.7605937115233 65.8795339665457)" fill="#6e402e" fill-opacity="0.341176470588235" fill-rule="evenodd" stroke="#000000" stroke-opacity="0" stroke-width="0" stroke-linecap="square" stroke-linejoin="bevel" d="M28.7555 270.4C45.3633 268.874 60.2858 245.227 69.4665 213.884C81.208 190.401 89.5018 132.285 89.9584 128.861C94.1231 108.464 120.405 98.4279 137.179 90.0409C153.722 85.7153 174.301 87.5176 204.128 87.2408C220.168 87.1123 272.739 85.5392 292.714 79.4152C282.25 54.8296 123.195 -11.88 82.0355 1.83987C56.451 10.368 27.4989 45.4848 12.9155 67.3599C-9.72031 101.314 -1.45581 267.232 28.7555 270.4Z"/><path id="shape2" transform="matrix(0.40072428752981 -0.000491285447136397 0.000491285447136397 0.40072428752981 26.0565285160297 42.0350527850869)" fill="#91370b" fill-rule="evenodd" stroke="#000000" stroke-width="14.4" stroke-linecap="square" stroke-linejoin="bevel" d="M219.017 0.580246C231.553 3.61943 381.366 30.1707 400.648 88.0153C417.432 138.368 231.495 121.291 220.288 126.895C209.921 132.079 196.713 137.826 186.808 145.255C159.803 165.509 159.197 223.36 146.848 252.175C138.527 271.591 86.6553 354.607 52.8877 332.095C41.8854 324.76 27.814 317.306 20.4877 305.095C-3.0296 265.9 -7.31192 145.774 12.9277 105.295C28.5137 74.1232 42.3074 51.5197 70.355 34.6911C85.3067 25.7201 103.514 13.6569 118.976 5.92597C131.537 -2.6456 199.706 0.615266 219.017 0.580246Z"/><path id="shape03" transform="matrix(0.369306558935997 -0.000452767510189355 0.000452767510189355 0.369306558935997 95.5571269005471 143.900953019718)" fill="#000000" fill-opacity="0.376470588235294" fill-rule="evenodd" stroke="#000000" stroke-opacity="0" stroke-width="0" stroke-linecap="square" stroke-linejoin="bevel" d="M0 106.56C38.4879 110.386 171.485 76.5261 223.2 0C226.628 91.6752 137.31 139.681 0 106.56Z"/><path id="shape211" transform="matrix(0.369306579064984 -0.000452767534867367 0.000452767534867367 0.369306579064984 28.5037757804227 50.1200813416254)" fill="#000000" fill-opacity="0.286274509803922" fill-rule="evenodd" stroke="#000000" stroke-opacity="0" stroke-width="0" stroke-linecap="square" stroke-linejoin="bevel" d="M5.09117 90.4903C4.46544 91.4985 2.98168 127.836 0 180.604C41.641 209.226 365.318 117.123 417.774 68.76C370.992 11.1318 287.956 0.85474 282.774 0"/><ellipse id="shape016" transform="matrix(0.427483764659882 -0.100558787983163 0.100558787983163 0.427483764659882 -0.976166680750675 81.0085654278956)" rx="206.64" ry="38.88" cx="206.64" cy="38.88" fill="#262626" fill-rule="evenodd" stroke="#000000" stroke-width="14.4" stroke-linecap="square" stroke-linejoin="bevel"/><path id="shape05" transform="matrix(0.369306576083015 -0.000452767531211491 0.000452767531211491 0.369306576083015 29.6779978105571 58.6935612599535)" fill="#000000" fill-rule="evenodd" stroke="#1a1a1a" stroke-width="14.4" stroke-linecap="square" stroke-linejoin="bevel" d="M11.7829 62.64C7.86819 62.64 7.00528 64.6688 3.86288 66.24C1.6895 67.3267 2.00947 69.2268 0.982879 71.28C-10.1546 93.5549 76.8155 92.4037 87.3829 87.12C116.418 72.6025 159.932 84.5369 191.063 74.16C216.451 65.6972 243.371 56.2862 266.663 44.64C286.141 34.901 337.287 0 285.383 0"/><rect id="shape11111" transform="matrix(0.427483764659882 -0.100558787983163 0.100558787983163 0.427483764659882 12.5522206021142 -17.2819737031678)" fill="#1a1a1a" fill-rule="evenodd" stroke="#000000" stroke-width="14.4" stroke-linecap="square" stroke-linejoin="bevel" width="228.24" height="238.32"/><ellipse id="shape023" transform="matrix(1.15786301320479 -0.270871292463937 0.270871292463937 1.15786301320479 -223.481821009902 -518.706327416772)" rx="113.76" ry="22.8599996774185" cx="113.76" cy="22.8599996774185" fill="#1a1a1a" fill-rule="evenodd" stroke="#000000" stroke-width="14.4" stroke-linecap="square" stroke-linejoin="bevel"/><path id="shape3" transform="matrix(0.427483764659883 -0.100558787983163 0.108153276991627 0.425697281351795 27.6861485103264 59.3218961907136)" fill="#333333" fill-rule="evenodd" stroke="#000000" stroke-width="14.4" stroke-linecap="square" stroke-linejoin="bevel" d="M4.07317 0C1.15072 0 0.000232815 8.45171 0.000232815 11.2006C0.000232815 24.6139 -0.206605 58.75 11.7099 66.6943C36.2485 83.0534 231.572 85.1754 244.376 59.5667C249.216 49.8863 244.251 9.54836 237.758 3.0547C236.66 1.95697 224.564 9.65156 222.484 10.6915C208.549 17.659 195.596 19.5773 180.228 23.4194C146.183 31.9304 26.5899 27.6079 2.0367 3.0547"/>
</svg>
